<svg xmlns="http://www.w3.org/2000/svg" width="21" height="21" viewBox="0 0 21 21"><g><g><path fill="#fff" d="M8.374 14.939a6.528 6.528 0 0 1-4.646-1.924 6.525 6.525 0 0 1-1.924-4.64c0-1.755.684-3.405 1.924-4.64A6.528 6.528 0 0 1 8.374 1.81c1.754 0 3.405.683 4.646 1.923a6.525 6.525 0 0 1 1.923 4.64 6.506 6.506 0 0 1-1.923 4.64 6.528 6.528 0 0 1-4.646 1.925zm12.374 4.542l-5.837-5.892A8.363 8.363 0 0 0 8.374.007 8.368 8.368 0 0 0 .006 8.375a8.363 8.363 0 0 0 8.368 8.362c2 0 3.831-.7 5.274-1.87l5.799 5.854a.894.894 0 0 0 .65.279.886.886 0 0 0 .618-.246.904.904 0 0 0 .033-1.273z"/></g></g></svg>